<svg xmlns="http://www.w3.org/2000/svg" xmlns:xlink="http://www.w3.org/1999/xlink" width="350" zoomAndPan="magnify" viewBox="0 0 262.5 187.499995" height="250" preserveAspectRatio="xMidYMid meet" version="1.0"><defs><g/><clipPath id="eae28f233b"><path d="M 2 29 L 259 29 L 259 179 L 2 179 Z M 2 29 " clip-rule="nonzero"/></clipPath><clipPath id="87fa236728"><path d="M 43.855469 -38.167969 L 276.488281 51.5625 L 215.988281 208.414062 L -16.644531 118.683594 Z M 43.855469 -38.167969 " clip-rule="nonzero"/></clipPath><clipPath id="cd12029edb"><path d="M 43.855469 -38.167969 L 276.488281 51.5625 L 215.988281 208.414062 L -16.644531 118.683594 Z M 43.855469 -38.167969 " clip-rule="nonzero"/></clipPath><clipPath id="b292dcf63f"><path d="M 256.824219 87.1875 C 262.601562 67.546875 252.730469 46.308594 234.085938 37.953125 C 219.691406 31.453125 203.757812 33.863281 192.152344 42.589844 C 186.367188 46.910156 178.363281 46.570312 172.742188 41.972656 C 168.414062 38.402344 163.34375 35.386719 157.824219 33.261719 C 141.640625 27.015625 124.292969 28.988281 110.339844 37.234375 C 102.253906 42.039062 92.21875 41.757812 84.105469 37.046875 C 80.585938 34.949219 76.703125 33.238281 72.640625 31.988281 C 46.308594 23.839844 17.773438 37.023438 6.773438 62.253906 C -5.757812 90.910156 8.25 123.886719 37.125 135.023438 C 49.078125 139.632812 61.617188 139.71875 72.886719 136.246094 C 84.285156 132.71875 96.464844 137.839844 101.867188 148.480469 C 108.1875 160.851562 119.203125 170.910156 133.648438 175.636719 C 160.207031 184.296875 189.496094 171.082031 200.542969 145.449219 C 201.808594 142.449219 202.816406 139.5625 203.582031 136.480469 C 206.089844 126.140625 214.191406 118.28125 224.675781 116.304688 C 239.339844 113.613281 252.222656 102.949219 256.824219 87.1875 Z M 256.824219 87.1875 " clip-rule="nonzero"/></clipPath><clipPath id="d026730e17"><path d="M 79 9 L 104 9 L 104 34 L 79 34 Z M 79 9 " clip-rule="nonzero"/></clipPath><clipPath id="cfeb9cf1c6"><path d="M 43.855469 -38.167969 L 276.488281 51.5625 L 215.988281 208.414062 L -16.644531 118.683594 Z M 43.855469 -38.167969 " clip-rule="nonzero"/></clipPath><clipPath id="db9e874b65"><path d="M 43.855469 -38.167969 L 276.488281 51.5625 L 215.988281 208.414062 L -16.644531 118.683594 Z M 43.855469 -38.167969 " clip-rule="nonzero"/></clipPath><clipPath id="b74b62ae4c"><path d="M 102.253906 25.875 C 101.976562 26.59375 101.632812 27.277344 101.222656 27.929688 C 100.808594 28.578125 100.335938 29.183594 99.804688 29.742188 C 99.273438 30.300781 98.695312 30.800781 98.066406 31.242188 C 97.433594 31.6875 96.769531 32.066406 96.066406 32.375 C 95.359375 32.6875 94.632812 32.929688 93.882812 33.097656 C 93.128906 33.265625 92.371094 33.359375 91.597656 33.378906 C 90.828125 33.398438 90.066406 33.34375 89.304688 33.210938 C 88.546875 33.078125 87.808594 32.875 87.089844 32.597656 C 86.371094 32.320312 85.6875 31.976562 85.035156 31.5625 C 84.386719 31.152344 83.78125 30.679688 83.222656 30.148438 C 82.664062 29.617188 82.164062 29.039062 81.722656 28.40625 C 81.277344 27.777344 80.902344 27.113281 80.589844 26.40625 C 80.277344 25.703125 80.035156 24.976562 79.867188 24.222656 C 79.699219 23.472656 79.605469 22.710938 79.585938 21.941406 C 79.566406 21.171875 79.625 20.40625 79.753906 19.648438 C 79.886719 18.890625 80.089844 18.152344 80.367188 17.433594 C 80.644531 16.714844 80.988281 16.03125 81.402344 15.378906 C 81.8125 14.730469 82.285156 14.125 82.816406 13.566406 C 83.347656 13.007812 83.929688 12.507812 84.558594 12.066406 C 85.1875 11.621094 85.855469 11.242188 86.558594 10.929688 C 87.261719 10.621094 87.988281 10.378906 88.742188 10.210938 C 89.492188 10.042969 90.253906 9.949219 91.023438 9.929688 C 91.792969 9.910156 92.558594 9.964844 93.316406 10.097656 C 94.074219 10.230469 94.8125 10.433594 95.53125 10.710938 C 96.25 10.988281 96.933594 11.332031 97.585938 11.746094 C 98.238281 12.15625 98.839844 12.628906 99.398438 13.160156 C 99.957031 13.691406 100.457031 14.269531 100.902344 14.898438 C 101.34375 15.53125 101.722656 16.195312 102.035156 16.902344 C 102.347656 17.605469 102.585938 18.332031 102.753906 19.085938 C 102.925781 19.835938 103.019531 20.597656 103.035156 21.367188 C 103.054688 22.136719 103 22.898438 102.867188 23.660156 C 102.734375 24.417969 102.53125 25.15625 102.253906 25.875 Z M 102.253906 25.875 " clip-rule="nonzero"/></clipPath><clipPath id="a7ca8befdf"><path d="M 155 8 L 170 8 L 170 23 L 155 23 Z M 155 8 " clip-rule="nonzero"/></clipPath><clipPath id="0ef7829b8a"><path d="M 43.855469 -38.167969 L 276.488281 51.5625 L 215.988281 208.414062 L -16.644531 118.683594 Z M 43.855469 -38.167969 " clip-rule="nonzero"/></clipPath><clipPath id="daf85a89a3"><path d="M 43.855469 -38.167969 L 276.488281 51.5625 L 215.988281 208.414062 L -16.644531 118.683594 Z M 43.855469 -38.167969 " clip-rule="nonzero"/></clipPath><clipPath id="3e9b710af4"><path d="M 168.945312 17.582031 C 168.777344 18.011719 168.574219 18.417969 168.328125 18.808594 C 168.082031 19.195312 167.800781 19.554688 167.484375 19.890625 C 167.167969 20.222656 166.820312 20.519531 166.445312 20.785156 C 166.070312 21.050781 165.671875 21.273438 165.25 21.460938 C 164.832031 21.648438 164.398438 21.789062 163.949219 21.890625 C 163.5 21.992188 163.046875 22.046875 162.585938 22.058594 C 162.128906 22.070312 161.671875 22.039062 161.21875 21.957031 C 160.765625 21.878906 160.324219 21.757812 159.894531 21.59375 C 159.46875 21.425781 159.058594 21.222656 158.671875 20.976562 C 158.28125 20.730469 157.921875 20.449219 157.589844 20.132812 C 157.257812 19.816406 156.957031 19.46875 156.695312 19.09375 C 156.429688 18.71875 156.203125 18.320312 156.015625 17.898438 C 155.832031 17.480469 155.6875 17.046875 155.585938 16.597656 C 155.484375 16.148438 155.429688 15.695312 155.417969 15.234375 C 155.40625 14.777344 155.441406 14.320312 155.519531 13.867188 C 155.597656 13.414062 155.71875 12.972656 155.886719 12.546875 C 156.050781 12.117188 156.257812 11.707031 156.503906 11.320312 C 156.75 10.933594 157.03125 10.570312 157.347656 10.238281 C 157.664062 9.90625 158.007812 9.605469 158.386719 9.34375 C 158.761719 9.078125 159.160156 8.851562 159.578125 8.667969 C 160 8.480469 160.433594 8.335938 160.882812 8.234375 C 161.328125 8.136719 161.785156 8.078125 162.242188 8.066406 C 162.703125 8.054688 163.160156 8.089844 163.609375 8.167969 C 164.0625 8.246094 164.503906 8.371094 164.933594 8.535156 C 165.363281 8.699219 165.769531 8.90625 166.160156 9.152344 C 166.546875 9.398438 166.90625 9.679688 167.238281 9.996094 C 167.574219 10.3125 167.871094 10.660156 168.136719 11.035156 C 168.402344 11.410156 168.625 11.808594 168.8125 12.226562 C 169 12.648438 169.140625 13.082031 169.242188 13.53125 C 169.34375 13.980469 169.398438 14.433594 169.410156 14.890625 C 169.421875 15.351562 169.386719 15.808594 169.308594 16.261719 C 169.230469 16.710938 169.109375 17.152344 168.945312 17.582031 Z M 168.945312 17.582031 " clip-rule="nonzero"/></clipPath><clipPath id="3e716374e2"><path d="M 218 131 L 241 131 L 241 154 L 218 154 Z M 218 131 " clip-rule="nonzero"/></clipPath><clipPath id="7337562c2e"><path d="M 43.855469 -38.167969 L 276.488281 51.5625 L 215.988281 208.414062 L -16.644531 118.683594 Z M 43.855469 -38.167969 " clip-rule="nonzero"/></clipPath><clipPath id="ff06023703"><path d="M 43.855469 -38.167969 L 276.488281 51.5625 L 215.988281 208.414062 L -16.644531 118.683594 Z M 43.855469 -38.167969 " clip-rule="nonzero"/></clipPath><clipPath id="1ea82df383"><path d="M 239.378906 146.378906 C 239.117188 147.054688 238.792969 147.699219 238.40625 148.3125 C 238.019531 148.921875 237.574219 149.492188 237.074219 150.015625 C 236.574219 150.542969 236.027344 151.011719 235.4375 151.429688 C 234.84375 151.847656 234.214844 152.203125 233.554688 152.496094 C 232.890625 152.789062 232.207031 153.015625 231.5 153.175781 C 230.792969 153.335938 230.074219 153.421875 229.351562 153.441406 C 228.625 153.457031 227.90625 153.40625 227.191406 153.28125 C 226.476562 153.15625 225.78125 152.964844 225.105469 152.703125 C 224.429688 152.445312 223.785156 152.121094 223.171875 151.730469 C 222.5625 151.34375 221.992188 150.898438 221.46875 150.398438 C 220.941406 149.902344 220.472656 149.355469 220.054688 148.761719 C 219.636719 148.167969 219.28125 147.542969 218.988281 146.878906 C 218.695312 146.214844 218.46875 145.53125 218.308594 144.824219 C 218.148438 144.117188 218.0625 143.402344 218.042969 142.675781 C 218.027344 141.953125 218.078125 141.230469 218.203125 140.519531 C 218.328125 139.804688 218.519531 139.109375 218.78125 138.433594 C 219.039062 137.757812 219.363281 137.113281 219.753906 136.5 C 220.140625 135.886719 220.585938 135.316406 221.085938 134.792969 C 221.585938 134.269531 222.128906 133.796875 222.722656 133.378906 C 223.316406 132.960938 223.941406 132.605469 224.605469 132.3125 C 225.269531 132.019531 225.953125 131.792969 226.660156 131.632812 C 227.367188 131.476562 228.082031 131.386719 228.808594 131.371094 C 229.53125 131.351562 230.253906 131.40625 230.964844 131.527344 C 231.679688 131.652344 232.375 131.84375 233.050781 132.105469 C 233.730469 132.367188 234.371094 132.691406 234.984375 133.078125 C 235.597656 133.464844 236.167969 133.910156 236.691406 134.410156 C 237.214844 134.910156 237.6875 135.457031 238.105469 136.046875 C 238.523438 136.640625 238.878906 137.269531 239.171875 137.929688 C 239.464844 138.59375 239.691406 139.277344 239.851562 139.984375 C 240.007812 140.695312 240.097656 141.410156 240.117188 142.132812 C 240.132812 142.859375 240.078125 143.578125 239.957031 144.292969 C 239.832031 145.007812 239.640625 145.703125 239.378906 146.378906 Z M 239.378906 146.378906 " clip-rule="nonzero"/></clipPath></defs><g clip-path="url(#eae28f233b)"><g clip-path="url(#87fa236728)"><g clip-path="url(#cd12029edb)"><g clip-path="url(#b292dcf63f)"><path fill="#c1121f" d="M 34.007812 -64.066406 L -53.777344 163.515625 L 227.996094 272.199219 L 315.777344 44.621094 Z M 34.007812 -64.066406 " fill-opacity="1" fill-rule="nonzero"/></g></g></g></g><g clip-path="url(#d026730e17)"><g clip-path="url(#cfeb9cf1c6)"><g clip-path="url(#db9e874b65)"><g clip-path="url(#b74b62ae4c)"><path fill="#c1121f" d="M 82.609375 2.023438 L 71.679688 30.355469 L 100.011719 41.285156 L 110.941406 12.953125 Z M 82.609375 2.023438 " fill-opacity="1" fill-rule="nonzero"/></g></g></g></g><g clip-path="url(#a7ca8befdf)"><g clip-path="url(#0ef7829b8a)"><g clip-path="url(#daf85a89a3)"><g clip-path="url(#3e9b710af4)"><path fill="#c1121f" d="M 157.222656 3.351562 L 150.703125 20.253906 L 167.605469 26.777344 L 174.128906 9.871094 Z M 157.222656 3.351562 " fill-opacity="1" fill-rule="nonzero"/></g></g></g></g><g clip-path="url(#3e716374e2)"><g clip-path="url(#7337562c2e)"><g clip-path="url(#ff06023703)"><g clip-path="url(#1ea82df383)"><path fill="#c1121f" d="M 220.890625 123.929688 L 210.601562 150.59375 L 237.269531 160.882812 L 247.554688 134.214844 Z M 220.890625 123.929688 " fill-opacity="1" fill-rule="nonzero"/></g></g></g></g><g fill="#fcfdf2" fill-opacity="1"><g transform="translate(20.663164, 114.651321)"><g><path d="M 15.109375 -4.9375 C 12.304688 -4.019531 9.820312 -3.8125 7.65625 -4.3125 C 5.488281 -4.8125 3.597656 -5.742188 1.984375 -7.109375 C 0.367188 -8.472656 -0.984375 -10.054688 -2.078125 -11.859375 C -3.179688 -13.660156 -4.078125 -15.410156 -4.765625 -17.109375 C -5.460938 -18.804688 -5.972656 -20.21875 -6.296875 -21.34375 C -6.742188 -22.851562 -7.046875 -24.601562 -7.203125 -26.59375 C -7.359375 -28.59375 -7.296875 -30.679688 -7.015625 -32.859375 C -6.742188 -35.035156 -6.144531 -37.148438 -5.21875 -39.203125 C -4.289062 -41.253906 -2.96875 -43.101562 -1.25 -44.75 C 0.457031 -46.394531 2.671875 -47.660156 5.390625 -48.546875 C 6.085938 -48.773438 6.875 -48.875 7.75 -48.84375 C 8.632812 -48.8125 9.441406 -48.539062 10.171875 -48.03125 C 10.898438 -47.53125 11.332031 -46.648438 11.46875 -45.390625 C 11.644531 -44.015625 11.476562 -42.960938 10.96875 -42.234375 C 10.46875 -41.503906 9.8125 -41.007812 9 -40.75 C 8.84375 -40.695312 8.675781 -40.65625 8.5 -40.625 C 8.332031 -40.59375 8.164062 -40.570312 8 -40.5625 C 7.4375 -40.5 6.847656 -40.367188 6.234375 -40.171875 C 4.648438 -39.660156 3.320312 -38.757812 2.25 -37.46875 C 1.1875 -36.175781 0.53125 -34.65625 0.28125 -32.90625 C 0.03125 -31.164062 0.265625 -29.316406 0.984375 -27.359375 C 1.867188 -24.898438 3.164062 -23.421875 4.875 -22.921875 C 6.59375 -22.429688 9.015625 -22.582031 12.140625 -23.375 C 14.703125 -24.03125 16.738281 -24.035156 18.25 -23.390625 C 19.757812 -22.742188 20.878906 -21.679688 21.609375 -20.203125 C 22.335938 -18.734375 22.78125 -17.082031 22.9375 -15.25 C 23.101562 -13.101562 22.53125 -11.070312 21.21875 -9.15625 C 19.90625 -7.238281 17.867188 -5.832031 15.109375 -4.9375 Z M 15.109375 -4.9375 "/></g></g></g><g fill="#fcfdf2" fill-opacity="1"><g transform="translate(44.484292, 107.075092)"><g><path d="M 5.28125 -0.609375 C 4.007812 -0.460938 2.859375 -0.859375 1.828125 -1.796875 C 0.796875 -2.734375 0.128906 -4.429688 -0.171875 -6.890625 C -0.472656 -9.347656 -0.148438 -12.78125 0.796875 -17.1875 C 1.285156 -19.351562 1.5625 -21.179688 1.625 -22.671875 C 1.6875 -24.160156 1.664062 -25.46875 1.5625 -26.59375 C 1.457031 -27.71875 1.34375 -28.820312 1.21875 -29.90625 C 1.09375 -30.988281 1.046875 -32.171875 1.078125 -33.453125 C 1.085938 -34.109375 1.351562 -34.785156 1.875 -35.484375 C 2.394531 -36.191406 3.351562 -36.628906 4.75 -36.796875 C 5.6875 -36.898438 6.476562 -36.753906 7.125 -36.359375 C 7.769531 -35.960938 8.257812 -35.476562 8.59375 -34.90625 C 8.96875 -34.207031 9.234375 -33.289062 9.390625 -32.15625 C 9.546875 -31.019531 9.8125 -29.613281 10.1875 -27.9375 C 10.5625 -26.257812 11.316406 -24.257812 12.453125 -21.9375 C 13.515625 -19.695312 14.492188 -17.421875 15.390625 -15.109375 C 16.285156 -12.796875 16.863281 -10.644531 17.125 -8.65625 C 17.394531 -6.664062 17.15625 -5.015625 16.40625 -3.703125 C 15.65625 -2.398438 14.175781 -1.625 11.96875 -1.375 Z M 4.296875 -39.046875 C 3.191406 -38.921875 2.195312 -39.164062 1.3125 -39.78125 C 0.425781 -40.394531 -0.0703125 -41.191406 -0.1875 -42.171875 C -0.300781 -43.179688 0.00390625 -44.082031 0.734375 -44.875 C 1.460938 -45.664062 2.378906 -46.125 3.484375 -46.25 C 4.628906 -46.382812 5.644531 -46.144531 6.53125 -45.53125 C 7.414062 -44.925781 7.914062 -44.117188 8.03125 -43.109375 C 8.144531 -42.128906 7.835938 -41.238281 7.109375 -40.4375 C 6.378906 -39.644531 5.441406 -39.179688 4.296875 -39.046875 Z M 4.296875 -39.046875 "/></g></g></g><g fill="#fcfdf2" fill-opacity="1"><g transform="translate(59.954344, 103.831604)"><g><path d="M 9.015625 1.15625 C 7.785156 1 6.523438 0.582031 5.234375 -0.09375 C 3.953125 -0.769531 2.9375 -1.707031 2.1875 -2.90625 C 1.4375 -4.101562 1.238281 -5.566406 1.59375 -7.296875 C 2 -9.179688 2.5625 -11.054688 3.28125 -12.921875 C 4 -14.785156 4.765625 -16.894531 5.578125 -19.25 C 6.398438 -21.601562 7.132812 -24.414062 7.78125 -27.6875 C 8.144531 -29.53125 8.414062 -31.390625 8.59375 -33.265625 C 8.769531 -35.140625 8.976562 -36.847656 9.21875 -38.390625 C 9.457031 -39.929688 9.859375 -41.148438 10.421875 -42.046875 C 10.992188 -42.941406 11.851562 -43.316406 13 -43.171875 C 14.5625 -42.960938 16.039062 -42.347656 17.4375 -41.328125 C 18.832031 -40.304688 20.101562 -39.078125 21.25 -37.640625 C 22.40625 -36.203125 23.421875 -34.769531 24.296875 -33.34375 C 25.171875 -31.914062 25.875 -30.691406 26.40625 -29.671875 C 26.945312 -28.660156 27.285156 -28.039062 27.421875 -27.8125 C 27.890625 -27.09375 28.25 -26.71875 28.5 -26.6875 C 28.882812 -26.632812 29.25 -27.375 29.59375 -28.90625 C 29.945312 -30.4375 30.390625 -33.273438 30.921875 -37.421875 C 31.210938 -39.671875 32.421875 -40.660156 34.546875 -40.390625 C 34.878906 -40.347656 35.300781 -40.226562 35.8125 -40.03125 C 36.332031 -39.832031 36.789062 -39.46875 37.1875 -38.9375 C 37.59375 -38.414062 37.753906 -37.625 37.671875 -36.5625 C 37.359375 -31.863281 37.203125 -27.851562 37.203125 -24.53125 C 37.210938 -21.21875 37.257812 -18.316406 37.34375 -15.828125 C 37.425781 -13.335938 37.460938 -11.035156 37.453125 -8.921875 C 37.441406 -6.816406 37.242188 -4.601562 36.859375 -2.28125 C 36.566406 -0.382812 35.738281 1.160156 34.375 2.359375 C 33.019531 3.566406 31.179688 4.019531 28.859375 3.71875 C 25.890625 3.332031 23.804688 2.242188 22.609375 0.453125 C 21.421875 -1.328125 21.070312 -3.4375 21.5625 -5.875 C 22.144531 -8.78125 22.300781 -11.601562 22.03125 -14.34375 C 21.757812 -17.09375 21.269531 -19.578125 20.5625 -21.796875 C 19.863281 -24.023438 19.125 -25.800781 18.34375 -27.125 C 17.570312 -28.457031 16.972656 -29.148438 16.546875 -29.203125 C 16.003906 -29.234375 15.628906 -28.957031 15.421875 -28.375 C 15.210938 -27.800781 15.128906 -27.078125 15.171875 -26.203125 C 15.210938 -25.335938 15.285156 -24.488281 15.390625 -23.65625 C 15.492188 -22.820312 15.5625 -22.191406 15.59375 -21.765625 C 15.769531 -20.140625 16.070312 -18.492188 16.5 -16.828125 C 16.9375 -15.160156 17.375 -13.507812 17.8125 -11.875 C 18.25 -10.25 18.523438 -8.648438 18.640625 -7.078125 C 18.765625 -5.515625 18.585938 -4.035156 18.109375 -2.640625 C 17.878906 -1.929688 17.460938 -1.226562 16.859375 -0.53125 C 16.265625 0.164062 15.347656 0.691406 14.109375 1.046875 C 12.878906 1.398438 11.179688 1.4375 9.015625 1.15625 Z M 9.015625 1.15625 "/></g></g></g><g fill="#fcfdf2" fill-opacity="1"><g transform="translate(92.993305, 108.195511)"><g><path d="M 5.921875 -5.53125 C 6.003906 -8.09375 6.410156 -10.742188 7.140625 -13.484375 C 7.878906 -16.222656 8.863281 -18.867188 10.09375 -21.421875 C 11.332031 -23.984375 12.734375 -26.332031 14.296875 -28.46875 C 15.859375 -30.601562 17.492188 -32.347656 19.203125 -33.703125 C 20.566406 -34.785156 22.25 -35.539062 24.25 -35.96875 C 26.257812 -36.40625 28.066406 -36.269531 29.671875 -35.5625 C 30.054688 -35.394531 30.304688 -35.285156 30.421875 -35.234375 C 30.546875 -35.179688 30.65625 -35.128906 30.75 -35.078125 C 30.851562 -35.035156 31.101562 -34.929688 31.5 -34.765625 C 33.332031 -33.960938 34.796875 -32.984375 35.890625 -31.828125 C 36.992188 -30.671875 37.675781 -29.484375 37.9375 -28.265625 C 38.207031 -27.054688 37.957031 -25.992188 37.1875 -25.078125 C 36.695312 -24.492188 36.035156 -24.253906 35.203125 -24.359375 C 34.367188 -24.472656 33.5 -24.726562 32.59375 -25.125 C 31.96875 -25.40625 31.316406 -25.710938 30.640625 -26.046875 C 29.972656 -26.378906 29.367188 -26.664062 28.828125 -26.90625 C 28.316406 -27.132812 27.878906 -27.28125 27.515625 -27.34375 C 27.148438 -27.40625 26.894531 -27.28125 26.75 -26.96875 C 26.519531 -26.519531 26.6875 -26.066406 27.25 -25.609375 C 27.820312 -25.148438 28.554688 -24.675781 29.453125 -24.1875 C 30.359375 -23.695312 31.234375 -23.132812 32.078125 -22.5 C 32.929688 -21.875 33.554688 -21.132812 33.953125 -20.28125 C 34.347656 -19.4375 34.285156 -18.429688 33.765625 -17.265625 C 33.253906 -16.085938 32.582031 -15.425781 31.75 -15.28125 C 30.925781 -15.132812 30.039062 -15.234375 29.09375 -15.578125 C 28.144531 -15.921875 27.203125 -16.304688 26.265625 -16.734375 C 25.335938 -17.160156 24.5 -17.394531 23.75 -17.4375 C 23 -17.488281 22.441406 -17.101562 22.078125 -16.28125 C 21.515625 -14.988281 21.507812 -13.722656 22.0625 -12.484375 C 22.613281 -11.242188 23.738281 -10.257812 25.4375 -9.53125 C 25.582031 -9.457031 25.726562 -9.394531 25.875 -9.34375 C 26.019531 -9.300781 26.164062 -9.25 26.3125 -9.1875 C 26.394531 -9.15625 26.484375 -9.113281 26.578125 -9.0625 C 26.679688 -9.019531 26.789062 -8.976562 26.90625 -8.9375 C 28.28125 -8.332031 29.242188 -7.410156 29.796875 -6.171875 C 30.359375 -4.929688 30.566406 -3.5625 30.421875 -2.0625 C 30.273438 -0.5625 29.828125 0.910156 29.078125 2.359375 C 28.328125 3.804688 27.332031 5.039062 26.09375 6.0625 C 24.851562 7.082031 23.394531 7.722656 21.71875 7.984375 C 20.039062 8.253906 18.203125 7.953125 16.203125 7.078125 L 11.15625 4.875 C 10.257812 4.476562 9.398438 3.75 8.578125 2.6875 C 7.753906 1.632812 7.09375 0.394531 6.59375 -1.03125 C 6.101562 -2.457031 5.878906 -3.957031 5.921875 -5.53125 Z M 5.921875 -5.53125 "/></g></g></g><g fill="#fcfdf2" fill-opacity="1"><g transform="translate(132.29108, 126.438399)"><g><path d="M 2.203125 -7.625 C 1.171875 -9.320312 0.628906 -11.039062 0.578125 -12.78125 C 0.523438 -14.53125 0.9375 -16.035156 1.8125 -17.296875 C 2.695312 -18.566406 4.054688 -19.289062 5.890625 -19.46875 C 5.972656 -19.46875 6.050781 -19.46875 6.125 -19.46875 C 6.207031 -19.46875 6.269531 -19.46875 6.3125 -19.46875 C 7.207031 -19.476562 8.039062 -19.269531 8.8125 -18.84375 C 9.59375 -18.425781 10.300781 -17.929688 10.9375 -17.359375 C 11.570312 -16.796875 12.128906 -16.300781 12.609375 -15.875 C 13.097656 -15.457031 13.523438 -15.25 13.890625 -15.25 C 14.054688 -15.25 14.203125 -15.316406 14.328125 -15.453125 C 14.847656 -16.023438 14.820312 -16.679688 14.25 -17.421875 C 13.675781 -18.171875 12.796875 -19.019531 11.609375 -19.96875 C 10.421875 -20.914062 9.1875 -21.984375 7.90625 -23.171875 C 6.625 -24.359375 5.519531 -25.660156 4.59375 -27.078125 C 3.664062 -28.492188 3.195312 -30.015625 3.1875 -31.640625 C 3.15625 -35.003906 4.332031 -37.628906 6.71875 -39.515625 C 9.101562 -41.398438 12.445312 -42.359375 16.75 -42.390625 C 18.976562 -42.398438 20.773438 -42.082031 22.140625 -41.4375 C 23.515625 -40.800781 24.457031 -39.988281 24.96875 -39 C 25.476562 -38.007812 25.554688 -37.023438 25.203125 -36.046875 C 24.960938 -35.390625 24.554688 -34.9375 23.984375 -34.6875 C 23.421875 -34.445312 22.773438 -34.320312 22.046875 -34.3125 C 21.117188 -34.300781 20.125 -34.414062 19.0625 -34.65625 C 18 -34.894531 17.0625 -35.03125 16.25 -35.0625 C 16.125 -35.0625 16.007812 -35.0625 15.90625 -35.0625 C 15.8125 -35.0625 15.722656 -35.0625 15.640625 -35.0625 C 14.460938 -35.050781 13.582031 -34.75 13 -34.15625 C 12.414062 -33.570312 12.269531 -32.753906 12.5625 -31.703125 C 12.769531 -30.890625 13.320312 -30.078125 14.21875 -29.265625 C 15.113281 -28.460938 16.207031 -27.617188 17.5 -26.734375 C 18.789062 -25.847656 20.128906 -24.898438 21.515625 -23.890625 C 22.898438 -22.890625 24.1875 -21.773438 25.375 -20.546875 C 26.5625 -19.316406 27.535156 -17.960938 28.296875 -16.484375 C 29.054688 -15.003906 29.421875 -13.332031 29.390625 -11.46875 C 29.367188 -8.988281 28.773438 -6.90625 27.609375 -5.21875 C 26.441406 -3.53125 24.976562 -2.257812 23.21875 -1.40625 C 21.457031 -0.5625 19.644531 -0.132812 17.78125 -0.125 L 15.59375 -0.109375 C 13.476562 -0.0976562 11.554688 -0.457031 9.828125 -1.1875 C 8.097656 -1.925781 6.585938 -2.867188 5.296875 -4.015625 C 4.003906 -5.171875 2.972656 -6.375 2.203125 -7.625 Z M 2.203125 -7.625 "/></g></g></g><g fill="#fcfdf2" fill-opacity="1"><g transform="translate(164.824018, 125.817991)"><g><path d="M 1.59375 -7.515625 C 0.269531 -9.566406 -0.847656 -11.859375 -1.765625 -14.390625 C -2.691406 -16.921875 -3.367188 -19.519531 -3.796875 -22.1875 C -4.222656 -24.851562 -4.410156 -27.445312 -4.359375 -29.96875 C -4.304688 -32.488281 -3.984375 -34.734375 -3.390625 -36.703125 C -2.921875 -38.285156 -2.019531 -39.789062 -0.6875 -41.21875 C 0.632812 -42.644531 2.113281 -43.523438 3.75 -43.859375 C 4.144531 -43.929688 4.398438 -43.976562 4.515625 -44 C 4.640625 -44.03125 4.75 -44.054688 4.84375 -44.078125 C 4.945312 -44.097656 5.195312 -44.148438 5.59375 -44.234375 C 7.46875 -44.609375 9.144531 -44.640625 10.625 -44.328125 C 12.113281 -44.023438 13.296875 -43.472656 14.171875 -42.671875 C 15.046875 -41.878906 15.421875 -40.910156 15.296875 -39.765625 C 15.242188 -39.054688 14.863281 -38.515625 14.15625 -38.140625 C 13.445312 -37.765625 12.628906 -37.488281 11.703125 -37.3125 C 11.078125 -37.1875 10.40625 -37.070312 9.6875 -36.96875 C 8.976562 -36.875 8.347656 -36.769531 7.796875 -36.65625 C 7.273438 -36.550781 6.851562 -36.421875 6.53125 -36.265625 C 6.21875 -36.117188 6.09375 -35.890625 6.15625 -35.578125 C 6.21875 -35.085938 6.59375 -34.820312 7.28125 -34.78125 C 7.96875 -34.738281 8.796875 -34.769531 9.765625 -34.875 C 10.742188 -34.988281 11.734375 -35.03125 12.734375 -35 C 13.734375 -34.976562 14.613281 -34.742188 15.375 -34.296875 C 16.144531 -33.847656 16.648438 -33.023438 16.890625 -31.828125 C 17.128906 -30.628906 16.96875 -29.742188 16.40625 -29.171875 C 15.84375 -28.609375 15.097656 -28.203125 14.171875 -27.953125 C 13.253906 -27.703125 12.316406 -27.488281 11.359375 -27.3125 C 10.398438 -27.144531 9.613281 -26.878906 9 -26.515625 C 8.394531 -26.148438 8.175781 -25.550781 8.34375 -24.71875 C 8.601562 -23.394531 9.285156 -22.398438 10.390625 -21.734375 C 11.492188 -21.078125 12.90625 -20.921875 14.625 -21.265625 C 14.78125 -21.296875 14.925781 -21.332031 15.0625 -21.375 C 15.195312 -21.414062 15.34375 -21.453125 15.5 -21.484375 C 15.582031 -21.503906 15.671875 -21.523438 15.765625 -21.546875 C 15.859375 -21.566406 15.96875 -21.585938 16.09375 -21.609375 C 17.488281 -21.890625 18.738281 -21.695312 19.84375 -21.03125 C 20.957031 -20.363281 21.863281 -19.40625 22.5625 -18.15625 C 23.257812 -16.914062 23.710938 -15.53125 23.921875 -14 C 24.128906 -12.46875 24.023438 -10.96875 23.609375 -9.5 C 23.203125 -8.03125 22.414062 -6.726562 21.25 -5.59375 C 20.09375 -4.46875 18.503906 -3.707031 16.484375 -3.3125 L 11.34375 -2.265625 C 10.425781 -2.085938 9.359375 -2.1875 8.140625 -2.5625 C 6.921875 -2.945312 5.726562 -3.5625 4.5625 -4.40625 C 3.40625 -5.25 2.414062 -6.285156 1.59375 -7.515625 Z M 1.59375 -7.515625 "/></g></g></g><g fill="#fcfdf2" fill-opacity="1"><g transform="translate(193.390215, 119.876801)"><g><path d="M 0.21875 -7.6875 C -1.445312 -9.46875 -2.957031 -11.519531 -4.3125 -13.84375 C -5.675781 -16.164062 -6.804688 -18.597656 -7.703125 -21.140625 C -8.609375 -23.691406 -9.257812 -26.210938 -9.65625 -28.703125 C -10.050781 -31.191406 -10.140625 -33.457031 -9.921875 -35.5 C -9.734375 -37.144531 -9.113281 -38.785156 -8.0625 -40.421875 C -7.007812 -42.066406 -5.710938 -43.195312 -4.171875 -43.8125 C -3.785156 -43.96875 -3.535156 -44.066406 -3.421875 -44.109375 C -3.304688 -44.160156 -3.203125 -44.203125 -3.109375 -44.234375 C -3.015625 -44.273438 -2.78125 -44.367188 -2.40625 -44.515625 C -0.632812 -45.222656 1.007812 -45.5625 2.53125 -45.53125 C 4.050781 -45.5 5.3125 -45.164062 6.3125 -44.53125 C 7.3125 -43.894531 7.851562 -43.003906 7.9375 -41.859375 C 8.007812 -41.148438 7.726562 -40.546875 7.09375 -40.046875 C 6.46875 -39.554688 5.71875 -39.140625 4.84375 -38.796875 C 4.238281 -38.554688 3.597656 -38.328125 2.921875 -38.109375 C 2.242188 -37.890625 1.644531 -37.675781 1.125 -37.46875 C 0.625 -37.269531 0.226562 -37.066406 -0.0625 -36.859375 C -0.351562 -36.660156 -0.4375 -36.410156 -0.3125 -36.109375 C -0.175781 -35.628906 0.234375 -35.429688 0.921875 -35.515625 C 1.617188 -35.597656 2.4375 -35.78125 3.375 -36.0625 C 4.3125 -36.351562 5.273438 -36.570312 6.265625 -36.71875 C 7.253906 -36.875 8.164062 -36.800781 9 -36.5 C 9.832031 -36.195312 10.472656 -35.476562 10.921875 -34.34375 C 11.378906 -33.207031 11.378906 -32.304688 10.921875 -31.640625 C 10.460938 -30.984375 9.800781 -30.445312 8.9375 -30.03125 C 8.082031 -29.625 7.195312 -29.25 6.28125 -28.90625 C 5.363281 -28.570312 4.632812 -28.171875 4.09375 -27.703125 C 3.5625 -27.234375 3.453125 -26.601562 3.765625 -25.8125 C 4.265625 -24.5625 5.117188 -23.707031 6.328125 -23.25 C 7.535156 -22.789062 8.953125 -22.882812 10.578125 -23.53125 C 10.722656 -23.59375 10.859375 -23.660156 10.984375 -23.734375 C 11.109375 -23.804688 11.242188 -23.875 11.390625 -23.9375 C 11.472656 -23.96875 11.554688 -24 11.640625 -24.03125 C 11.734375 -24.070312 11.84375 -24.113281 11.96875 -24.15625 C 13.289062 -24.6875 14.554688 -24.71875 15.765625 -24.25 C 16.972656 -23.78125 18.035156 -22.992188 18.953125 -21.890625 C 19.867188 -20.796875 20.5625 -19.515625 21.03125 -18.046875 C 21.507812 -16.578125 21.675781 -15.082031 21.53125 -13.5625 C 21.394531 -12.039062 20.851562 -10.625 19.90625 -9.3125 C 18.96875 -8 17.539062 -6.960938 15.625 -6.203125 L 10.75 -4.265625 C 9.882812 -3.921875 8.816406 -3.828125 7.546875 -3.984375 C 6.285156 -4.140625 5.003906 -4.523438 3.703125 -5.140625 C 2.410156 -5.765625 1.25 -6.613281 0.21875 -7.6875 Z M 0.21875 -7.6875 "/></g></g></g><g fill="#fcfdf2" fill-opacity="1"><g transform="translate(220.969911, 109.093892)"><g><path d="M 2.0625 -3.40625 C 0.238281 -3.507812 -1.21875 -4.050781 -2.3125 -5.03125 C -3.40625 -6.019531 -4.257812 -7.269531 -4.875 -8.78125 C -5.5 -10.289062 -6 -11.921875 -6.375 -13.671875 C -6.757812 -15.429688 -7.132812 -17.132812 -7.5 -18.78125 C -7.875 -20.4375 -8.375 -21.882812 -9 -23.125 C -9.570312 -24.195312 -10.363281 -25.238281 -11.375 -26.25 C -12.382812 -27.269531 -13.425781 -28.273438 -14.5 -29.265625 C -15.570312 -30.253906 -16.488281 -31.300781 -17.25 -32.40625 C -18.007812 -33.507812 -18.421875 -34.691406 -18.484375 -35.953125 C -18.492188 -36.585938 -18.347656 -37.257812 -18.046875 -37.96875 C -17.753906 -38.6875 -17.21875 -39.300781 -16.4375 -39.8125 C -15.15625 -40.664062 -13.972656 -40.890625 -12.890625 -40.484375 C -11.804688 -40.078125 -10.816406 -39.285156 -9.921875 -38.109375 C -9.023438 -36.929688 -8.15625 -35.582031 -7.3125 -34.0625 C -6.476562 -32.550781 -5.660156 -31.113281 -4.859375 -29.75 C -4.867188 -30.125 -4.878906 -30.488281 -4.890625 -30.84375 C -4.898438 -31.207031 -4.945312 -31.550781 -5.03125 -31.875 C -5.207031 -32.601562 -5.421875 -33.609375 -5.671875 -34.890625 C -5.921875 -36.179688 -6.128906 -37.578125 -6.296875 -39.078125 C -6.460938 -40.585938 -6.519531 -42.015625 -6.46875 -43.359375 C -6.414062 -44.710938 -6.144531 -45.796875 -5.65625 -46.609375 C -5.53125 -46.785156 -5.351562 -46.992188 -5.125 -47.234375 C -4.90625 -47.484375 -4.625 -47.722656 -4.28125 -47.953125 C -3.875 -48.222656 -3.398438 -48.441406 -2.859375 -48.609375 C -2.316406 -48.773438 -1.769531 -48.847656 -1.21875 -48.828125 C -0.613281 -48.796875 0.0078125 -48.539062 0.65625 -48.0625 C 1.3125 -47.59375 1.894531 -47.050781 2.40625 -46.4375 C 2.914062 -45.820312 3.210938 -45.234375 3.296875 -44.671875 C 3.597656 -43.109375 3.59375 -41.441406 3.28125 -39.671875 C 2.96875 -37.898438 2.65625 -36.15625 2.34375 -34.4375 C 2.03125 -32.71875 2.023438 -31.109375 2.328125 -29.609375 C 2.941406 -30.160156 3.535156 -30.628906 4.109375 -31.015625 C 6.515625 -32.609375 9.0625 -32.992188 11.75 -32.171875 C 14.4375 -31.359375 17.554688 -29.742188 21.109375 -27.328125 C 21.828125 -26.828125 22.609375 -26.269531 23.453125 -25.65625 C 24.296875 -25.050781 25.066406 -24.382812 25.765625 -23.65625 C 26.472656 -22.925781 26.945312 -22.15625 27.1875 -21.34375 C 27.4375 -20.53125 27.335938 -19.671875 26.890625 -18.765625 C 26.453125 -17.867188 25.484375 -16.925781 23.984375 -15.9375 L 21.046875 -13.984375 C 19.828125 -13.171875 18.773438 -12.785156 17.890625 -12.828125 C 17.015625 -12.878906 16.226562 -13.222656 15.53125 -13.859375 C 14.84375 -14.503906 14.191406 -15.300781 13.578125 -16.25 C 12.972656 -17.207031 12.347656 -18.175781 11.703125 -19.15625 C 11.046875 -20.144531 10.476562 -21.082031 10 -21.96875 C 9.53125 -22.851562 9.035156 -23.554688 8.515625 -24.078125 C 8.003906 -24.609375 7.351562 -24.859375 6.5625 -24.828125 C 5.78125 -24.796875 4.769531 -24.363281 3.53125 -23.53125 C 3.382812 -23.4375 3.222656 -23.34375 3.046875 -23.25 C 2.867188 -23.15625 2.664062 -23.0625 2.4375 -22.96875 C 4.019531 -22.0625 5.492188 -21.085938 6.859375 -20.046875 C 8.222656 -19.003906 9.351562 -17.828125 10.25 -16.515625 C 11.15625 -15.210938 11.644531 -13.691406 11.71875 -11.953125 C 11.738281 -11.421875 11.6875 -10.785156 11.5625 -10.046875 C 11.445312 -9.316406 11.097656 -8.539062 10.515625 -7.71875 C 9.941406 -6.894531 8.976562 -6.03125 7.625 -5.125 C 6.78125 -4.570312 5.90625 -4.128906 5 -3.796875 C 4.101562 -3.472656 3.125 -3.34375 2.0625 -3.40625 Z M 2.0625 -3.40625 "/></g></g></g></svg>