<svg xmlns="http://www.w3.org/2000/svg" xmlns:xlink="http://www.w3.org/1999/xlink" width="300" zoomAndPan="magnify" viewBox="0 0 224.87999 74.999997" height="100" preserveAspectRatio="xMidYMid meet" version="1.0"><defs><g/><clipPath id="b0d95f9e23"><path d="M 0 9.109375 L 224.761719 9.109375 L 224.761719 66 L 0 66 Z M 0 9.109375 " clip-rule="nonzero"/></clipPath></defs><g clip-path="url(#b0d95f9e23)"><path fill="#e1cf28" d="M 0 34.359375 C 0 20.417969 11.300781 9.117188 25.242188 9.117188 L 199.636719 9.117188 C 213.578125 9.117188 224.878906 20.417969 224.878906 34.359375 L 224.878906 40.652344 C 224.878906 54.585938 213.582031 65.882812 199.648438 65.882812 L 25.242188 65.882812 C 11.300781 65.882812 0 54.582031 0 40.640625 Z M 0 34.359375 " fill-opacity="1" fill-rule="nonzero"/></g><g fill="#000000" fill-opacity="1"><g transform="translate(31.478383, 47.244794)"><g><path d="M 10.328125 0.421875 C 8.628906 0.421875 7.070312 0.0195312 5.65625 -0.78125 C 4.25 -1.59375 3.128906 -2.679688 2.296875 -4.046875 C 1.460938 -5.421875 1.046875 -6.929688 1.046875 -8.578125 C 1.046875 -10.191406 1.445312 -11.664062 2.25 -13 C 3.0625 -14.34375 4.15625 -15.425781 5.53125 -16.25 C 6.914062 -17.070312 8.429688 -17.492188 10.078125 -17.515625 C 11.390625 -17.515625 12.582031 -17.3125 13.65625 -16.90625 C 14.726562 -16.507812 15.578125 -15.96875 16.203125 -15.28125 C 16.828125 -14.601562 17.140625 -13.832031 17.140625 -12.96875 C 17.140625 -12.238281 16.921875 -11.566406 16.484375 -10.953125 C 16.054688 -10.335938 15.359375 -10.03125 14.390625 -10.03125 C 13.628906 -10.03125 12.984375 -10.265625 12.453125 -10.734375 C 11.929688 -11.210938 11.671875 -11.675781 11.671875 -12.125 C 11.671875 -12.125 11.78125 -12.175781 12 -12.28125 C 12.21875 -12.394531 12.4375 -12.617188 12.65625 -12.953125 C 12.882812 -13.296875 13 -13.785156 13 -14.421875 C 13 -15.234375 12.757812 -15.875 12.28125 -16.34375 C 11.8125 -16.820312 11.175781 -17.0625 10.375 -17.0625 C 9.195312 -17.0625 8.347656 -16.492188 7.828125 -15.359375 C 7.316406 -14.234375 7.0625 -12.789062 7.0625 -11.03125 C 7.0625 -8.164062 7.597656 -6 8.671875 -4.53125 C 9.742188 -3.070312 11.101562 -2.34375 12.75 -2.34375 C 13.925781 -2.34375 14.976562 -2.757812 15.90625 -3.59375 C 16.84375 -4.425781 17.535156 -5.5 17.984375 -6.8125 L 18.4375 -6.734375 C 17.988281 -4.691406 17.082031 -2.988281 15.71875 -1.625 C 14.351562 -0.257812 12.554688 0.421875 10.328125 0.421875 Z M 10.328125 0.421875 "/></g></g></g><g fill="#000000" fill-opacity="1"><g transform="translate(52.212549, 47.244794)"><g><path d="M 5.359375 -19.359375 C 4.460938 -19.359375 3.691406 -19.675781 3.046875 -20.3125 C 2.410156 -20.957031 2.09375 -21.738281 2.09375 -22.65625 C 2.09375 -23.550781 2.410156 -24.316406 3.046875 -24.953125 C 3.691406 -25.597656 4.460938 -25.921875 5.359375 -25.921875 C 6.273438 -25.921875 7.050781 -25.597656 7.6875 -24.953125 C 8.332031 -24.316406 8.65625 -23.550781 8.65625 -22.65625 C 8.65625 -21.738281 8.332031 -20.957031 7.6875 -20.3125 C 7.050781 -19.675781 6.273438 -19.359375 5.359375 -19.359375 Z M 2.296875 0 L 2.296875 -17.0625 L 8.40625 -17.015625 L 8.40625 0 Z M 2.296875 0 "/></g></g></g><g fill="#000000" fill-opacity="1"><g transform="translate(64.210117, 47.244794)"><g><path d="M 2.09375 0 L 2.09375 -17.0625 L 8.1875 -17.0625 L 8.1875 -13.875 C 8.613281 -14.4375 9.144531 -15.007812 9.78125 -15.59375 C 10.425781 -16.175781 11.160156 -16.675781 11.984375 -17.09375 C 12.804688 -17.519531 13.675781 -17.734375 14.59375 -17.734375 C 16.039062 -17.734375 17.203125 -17.351562 18.078125 -16.59375 C 18.960938 -15.84375 19.40625 -14.992188 19.40625 -14.046875 L 19.40625 0 L 13.296875 0 L 13.296875 -14.171875 C 13.296875 -15.316406 12.972656 -15.972656 12.328125 -16.140625 C 11.691406 -16.304688 10.984375 -16.054688 10.203125 -15.390625 C 10.035156 -15.242188 9.722656 -14.925781 9.265625 -14.4375 C 8.804688 -13.957031 8.445312 -13.535156 8.1875 -13.171875 L 8.1875 0 Z M 2.09375 0 "/></g></g></g><g fill="#000000" fill-opacity="1"><g transform="translate(86.950768, 47.244794)"><g><path d="M 10.328125 0.421875 C 8.628906 0.421875 7.070312 0.0195312 5.65625 -0.78125 C 4.25 -1.59375 3.128906 -2.679688 2.296875 -4.046875 C 1.460938 -5.421875 1.046875 -6.929688 1.046875 -8.578125 C 1.046875 -10.210938 1.460938 -11.707031 2.296875 -13.0625 C 3.128906 -14.414062 4.25 -15.492188 5.65625 -16.296875 C 7.070312 -17.109375 8.628906 -17.515625 10.328125 -17.515625 C 12.554688 -17.515625 14.378906 -16.914062 15.796875 -15.71875 C 17.222656 -14.519531 17.9375 -12.820312 17.9375 -10.625 L 7.0625 -10.625 C 7.175781 -7.96875 7.753906 -5.921875 8.796875 -4.484375 C 9.847656 -3.054688 11.164062 -2.34375 12.75 -2.34375 C 13.925781 -2.34375 14.976562 -2.757812 15.90625 -3.59375 C 16.84375 -4.425781 17.535156 -5.5 17.984375 -6.8125 L 18.4375 -6.734375 C 17.988281 -4.691406 17.082031 -2.988281 15.71875 -1.625 C 14.351562 -0.257812 12.554688 0.421875 10.328125 0.421875 Z M 7.0625 -11.03125 L 12.328125 -11.03125 C 12.328125 -12.738281 12.15625 -14.171875 11.8125 -15.328125 C 11.46875 -16.484375 10.890625 -17.0625 10.078125 -17.0625 C 9.265625 -17.0625 8.566406 -16.484375 7.984375 -15.328125 C 7.398438 -14.171875 7.09375 -12.738281 7.0625 -11.03125 Z M 7.0625 -11.03125 "/></g></g></g><g fill="#000000" fill-opacity="1"><g transform="translate(107.684934, 47.244794)"><g><path d="M 9.609375 0.421875 C 8.242188 0.421875 6.921875 0.207031 5.640625 -0.21875 C 4.359375 -0.65625 3.304688 -1.253906 2.484375 -2.015625 C 1.660156 -2.785156 1.25 -3.675781 1.25 -4.6875 C 1.25 -5.570312 1.535156 -6.257812 2.109375 -6.75 C 2.679688 -7.238281 3.359375 -7.484375 4.140625 -7.484375 C 5.035156 -7.484375 5.828125 -7.195312 6.515625 -6.625 C 7.210938 -6.050781 7.5625 -5.40625 7.5625 -4.6875 C 6.695312 -4.6875 6.265625 -4.085938 6.265625 -2.890625 C 6.265625 -1.859375 6.609375 -1.117188 7.296875 -0.671875 C 7.984375 -0.222656 8.6875 0 9.40625 0 C 9.820312 0 10.273438 -0.0625 10.765625 -0.1875 C 11.253906 -0.3125 11.671875 -0.546875 12.015625 -0.890625 C 12.367188 -1.242188 12.546875 -1.753906 12.546875 -2.421875 C 12.546875 -3.117188 12.285156 -3.753906 11.765625 -4.328125 C 11.253906 -4.898438 10.585938 -5.4375 9.765625 -5.9375 C 8.941406 -6.4375 8.0625 -6.9375 7.125 -7.4375 C 6.195312 -7.9375 5.320312 -8.457031 4.5 -9 C 3.675781 -9.550781 3.003906 -10.144531 2.484375 -10.78125 C 1.972656 -11.425781 1.71875 -12.15625 1.71875 -12.96875 C 1.71875 -14.050781 2.140625 -14.921875 2.984375 -15.578125 C 3.835938 -16.234375 4.90625 -16.707031 6.1875 -17 C 7.46875 -17.289062 8.75 -17.4375 10.03125 -17.4375 C 11.3125 -17.4375 12.492188 -17.253906 13.578125 -16.890625 C 14.671875 -16.523438 15.546875 -16.035156 16.203125 -15.421875 C 16.859375 -14.816406 17.1875 -14.109375 17.1875 -13.296875 C 17.1875 -12.347656 16.878906 -11.675781 16.265625 -11.28125 C 15.648438 -10.894531 15.050781 -10.703125 14.46875 -10.703125 C 13.71875 -10.703125 13.0625 -10.929688 12.5 -11.390625 C 11.945312 -11.847656 11.671875 -12.375 11.671875 -12.96875 C 11.671875 -12.96875 11.773438 -13 11.984375 -13.0625 C 12.191406 -13.132812 12.398438 -13.304688 12.609375 -13.578125 C 12.816406 -13.859375 12.921875 -14.28125 12.921875 -14.84375 C 12.921875 -15.507812 12.648438 -16.035156 12.109375 -16.421875 C 11.566406 -16.816406 10.90625 -17.015625 10.125 -17.015625 C 9.675781 -17.015625 9.195312 -16.929688 8.6875 -16.765625 C 8.1875 -16.597656 7.753906 -16.335938 7.390625 -15.984375 C 7.035156 -15.640625 6.859375 -15.160156 6.859375 -14.546875 C 6.859375 -13.910156 7.128906 -13.328125 7.671875 -12.796875 C 8.210938 -12.265625 8.914062 -11.757812 9.78125 -11.28125 C 10.644531 -10.8125 11.554688 -10.347656 12.515625 -9.890625 C 13.484375 -9.429688 14.390625 -8.941406 15.234375 -8.421875 C 16.085938 -7.910156 16.785156 -7.351562 17.328125 -6.75 C 17.867188 -6.15625 18.140625 -5.46875 18.140625 -4.6875 C 18.140625 -3.707031 17.710938 -2.832031 16.859375 -2.0625 C 16.015625 -1.300781 14.941406 -0.695312 13.640625 -0.25 C 12.347656 0.195312 11.003906 0.421875 9.609375 0.421875 Z M 9.609375 0.421875 "/></g></g></g><g fill="#000000" fill-opacity="1"><g transform="translate(128.3355, 47.244794)"><g><path d="M 10.328125 0.421875 C 8.628906 0.421875 7.070312 0.0195312 5.65625 -0.78125 C 4.25 -1.59375 3.128906 -2.679688 2.296875 -4.046875 C 1.460938 -5.421875 1.046875 -6.929688 1.046875 -8.578125 C 1.046875 -10.210938 1.460938 -11.707031 2.296875 -13.0625 C 3.128906 -14.414062 4.25 -15.492188 5.65625 -16.296875 C 7.070312 -17.109375 8.628906 -17.515625 10.328125 -17.515625 C 12.554688 -17.515625 14.378906 -16.914062 15.796875 -15.71875 C 17.222656 -14.519531 17.9375 -12.820312 17.9375 -10.625 L 7.0625 -10.625 C 7.175781 -7.96875 7.753906 -5.921875 8.796875 -4.484375 C 9.847656 -3.054688 11.164062 -2.34375 12.75 -2.34375 C 13.925781 -2.34375 14.976562 -2.757812 15.90625 -3.59375 C 16.84375 -4.425781 17.535156 -5.5 17.984375 -6.8125 L 18.4375 -6.734375 C 17.988281 -4.691406 17.082031 -2.988281 15.71875 -1.625 C 14.351562 -0.257812 12.554688 0.421875 10.328125 0.421875 Z M 7.0625 -11.03125 L 12.328125 -11.03125 C 12.328125 -12.738281 12.15625 -14.171875 11.8125 -15.328125 C 11.46875 -16.484375 10.890625 -17.0625 10.078125 -17.0625 C 9.265625 -17.0625 8.566406 -16.484375 7.984375 -15.328125 C 7.398438 -14.171875 7.09375 -12.738281 7.0625 -11.03125 Z M 7.0625 -11.03125 "/></g></g></g><g fill="#000000" fill-opacity="1"><g transform="translate(149.069665, 47.244794)"><g><path d="M 10.328125 0.421875 C 8.628906 0.421875 7.070312 0.0195312 5.65625 -0.78125 C 4.25 -1.59375 3.128906 -2.679688 2.296875 -4.046875 C 1.460938 -5.421875 1.046875 -6.929688 1.046875 -8.578125 C 1.046875 -10.210938 1.460938 -11.707031 2.296875 -13.0625 C 3.128906 -14.414062 4.25 -15.492188 5.65625 -16.296875 C 7.070312 -17.109375 8.628906 -17.515625 10.328125 -17.515625 C 12.554688 -17.515625 14.378906 -16.914062 15.796875 -15.71875 C 17.222656 -14.519531 17.9375 -12.820312 17.9375 -10.625 L 7.0625 -10.625 C 7.175781 -7.96875 7.753906 -5.921875 8.796875 -4.484375 C 9.847656 -3.054688 11.164062 -2.34375 12.75 -2.34375 C 13.925781 -2.34375 14.976562 -2.757812 15.90625 -3.59375 C 16.84375 -4.425781 17.535156 -5.5 17.984375 -6.8125 L 18.4375 -6.734375 C 17.988281 -4.691406 17.082031 -2.988281 15.71875 -1.625 C 14.351562 -0.257812 12.554688 0.421875 10.328125 0.421875 Z M 7.0625 -11.03125 L 12.328125 -11.03125 C 12.328125 -12.738281 12.15625 -14.171875 11.8125 -15.328125 C 11.46875 -16.484375 10.890625 -17.0625 10.078125 -17.0625 C 9.265625 -17.0625 8.566406 -16.484375 7.984375 -15.328125 C 7.398438 -14.171875 7.09375 -12.738281 7.0625 -11.03125 Z M 7.0625 -11.03125 "/></g></g></g><g fill="#000000" fill-opacity="1"><g transform="translate(169.803831, 47.244794)"><g><path d="M 2.09375 0 L 2.09375 -25.921875 L 8.1875 -25.921875 L 8.1875 -10.25 L 15.8125 -17.0625 L 16.390625 -17.0625 L 8.90625 -10.28125 C 9.71875 -10.757812 10.644531 -11.113281 11.6875 -11.34375 C 12.726562 -11.582031 13.679688 -11.578125 14.546875 -11.328125 C 15.609375 -11.023438 16.429688 -10.523438 17.015625 -9.828125 C 17.597656 -9.128906 18.101562 -8.285156 18.53125 -7.296875 C 18.96875 -6.304688 19.46875 -5.238281 20.03125 -4.09375 C 20.664062 -2.8125 21.3125 -1.804688 21.96875 -1.078125 C 22.625 -0.359375 22.953125 0 22.953125 0 C 22.953125 0 22.515625 0.046875 21.640625 0.140625 C 20.765625 0.242188 19.585938 0.195312 18.109375 0 C 16.679688 -0.195312 15.582031 -0.691406 14.8125 -1.484375 C 14.050781 -2.273438 13.460938 -3.265625 13.046875 -4.453125 C 12.628906 -5.640625 12.222656 -6.882812 11.828125 -8.1875 C 11.640625 -8.863281 11.347656 -9.316406 10.953125 -9.546875 C 10.566406 -9.785156 10.109375 -9.90625 9.578125 -9.90625 C 9.328125 -9.90625 9.082031 -9.867188 8.84375 -9.796875 C 8.601562 -9.734375 8.382812 -9.644531 8.1875 -9.53125 L 8.1875 0 Z M 2.09375 0 "/></g></g></g></svg>