<svg xmlns="http://www.w3.org/2000/svg" xmlns:xlink="http://www.w3.org/1999/xlink" width="350" zoomAndPan="magnify" viewBox="0 0 262.5 74.999997" height="100" preserveAspectRatio="xMidYMid meet" version="1.0"><defs><g/><clipPath id="96aa9f387e"><path d="M 184.347656 0.0703125 L 259.203125 0.0703125 L 259.203125 74.925781 L 184.347656 74.925781 Z M 184.347656 0.0703125 " clip-rule="nonzero"/></clipPath><clipPath id="26ddbb8ac1"><path d="M 221.773438 0.0703125 C 201.101562 0.0703125 184.347656 16.828125 184.347656 37.5 C 184.347656 58.171875 201.101562 74.929688 221.773438 74.929688 C 242.445312 74.929688 259.203125 58.171875 259.203125 37.5 C 259.203125 16.828125 242.445312 0.0703125 221.773438 0.0703125 Z M 221.773438 0.0703125 " clip-rule="nonzero"/></clipPath></defs><g clip-path="url(#96aa9f387e)"><g clip-path="url(#26ddbb8ac1)"><path fill="#ffffff" d="M 184.347656 0.0703125 L 259.203125 0.0703125 L 259.203125 74.929688 L 184.347656 74.929688 Z M 184.347656 0.0703125 " fill-opacity="1" fill-rule="nonzero"/></g></g><g fill="#000000" fill-opacity="1"><g transform="translate(2.797414, 53.737996)"><g><path d="M 16.015625 0.59375 C 13.140625 0.59375 10.613281 -0.0078125 8.4375 -1.21875 C 6.269531 -2.425781 4.582031 -4.132812 3.375 -6.34375 C 2.164062 -8.550781 1.5625 -11.125 1.5625 -14.0625 C 1.5625 -16.894531 2.15625 -19.378906 3.34375 -21.515625 C 4.539062 -23.660156 6.222656 -25.335938 8.390625 -26.546875 C 10.566406 -27.753906 13.109375 -28.359375 16.015625 -28.359375 C 19.515625 -28.359375 22.476562 -27.46875 24.90625 -25.6875 C 27.34375 -23.90625 28.921875 -21.515625 29.640625 -18.515625 L 20.625 -18.515625 C 19.90625 -20.734375 18.367188 -21.84375 16.015625 -21.84375 C 14.191406 -21.84375 12.738281 -21.148438 11.65625 -19.765625 C 10.582031 -18.378906 10.046875 -16.476562 10.046875 -14.0625 C 10.046875 -11.539062 10.582031 -9.5625 11.65625 -8.125 C 12.738281 -6.6875 14.191406 -5.96875 16.015625 -5.96875 C 17.421875 -5.96875 18.488281 -6.285156 19.21875 -6.921875 C 19.957031 -7.566406 20.457031 -8.457031 20.71875 -9.59375 L 29.6875 -9.59375 C 29 -6.394531 27.421875 -3.894531 24.953125 -2.09375 C 22.492188 -0.300781 19.515625 0.59375 16.015625 0.59375 Z M 16.015625 0.59375 "/></g></g></g><g fill="#000000" fill-opacity="1"><g transform="translate(33.807213, 53.737996)"><g><path d="M 6.8125 -29.6875 C 5.53125 -29.6875 4.429688 -30.0625 3.515625 -30.8125 C 2.609375 -31.5625 2.15625 -32.585938 2.15625 -33.890625 C 2.15625 -35.203125 2.609375 -36.238281 3.515625 -37 C 4.429688 -37.769531 5.53125 -38.15625 6.8125 -38.15625 C 8.082031 -38.15625 9.175781 -37.769531 10.09375 -37 C 11.007812 -36.238281 11.46875 -35.203125 11.46875 -33.890625 C 11.46875 -32.585938 11.007812 -31.5625 10.09375 -30.8125 C 9.175781 -30.0625 8.082031 -29.6875 6.8125 -29.6875 Z M 10.921875 0 L 2.6875 0 L 2.6875 -27.78125 L 10.921875 -27.78125 Z M 10.921875 0 "/></g></g></g><g fill="#000000" fill-opacity="1"><g transform="translate(47.426049, 53.737996)"><g><path d="M 10.921875 0 L 2.6875 0 L 2.6875 -27.78125 L 10.921875 -27.78125 L 10.921875 -24.78125 C 11.867188 -26.1875 12.921875 -27.132812 14.078125 -27.625 C 15.242188 -28.113281 16.5625 -28.359375 18.03125 -28.359375 C 19.851562 -28.359375 21.359375 -28.140625 22.546875 -27.703125 C 23.742188 -27.265625 24.691406 -26.675781 25.390625 -25.9375 C 26.097656 -25.195312 26.628906 -24.40625 26.984375 -23.5625 C 27.546875 -22.351562 27.863281 -21.144531 27.9375 -19.9375 C 28.019531 -18.726562 28.0625 -17.257812 28.0625 -15.53125 L 28.0625 0 L 19.84375 0 L 19.84375 -15.625 C 19.84375 -17 19.75 -18.082031 19.5625 -18.875 C 19.382812 -19.675781 19.082031 -20.289062 18.65625 -20.71875 C 18.007812 -21.40625 17 -21.75 15.625 -21.75 C 14.78125 -21.75 14.046875 -21.640625 13.421875 -21.421875 C 12.796875 -21.210938 12.304688 -20.847656 11.953125 -20.328125 C 11.628906 -19.867188 11.375 -19.269531 11.1875 -18.53125 C 11.007812 -17.800781 10.921875 -16.832031 10.921875 -15.625 Z M 10.921875 0 "/></g></g></g><g fill="#000000" fill-opacity="1"><g transform="translate(77.994953, 53.737996)"><g><path d="M 16.0625 0.59375 C 13.125 0.59375 10.566406 -0.0234375 8.390625 -1.265625 C 6.222656 -2.515625 4.539062 -4.207031 3.34375 -6.34375 C 2.15625 -8.476562 1.5625 -10.921875 1.5625 -13.671875 C 1.5625 -15.429688 1.832031 -17.175781 2.375 -18.90625 C 2.914062 -20.632812 3.765625 -22.21875 4.921875 -23.65625 C 6.078125 -25.09375 7.550781 -26.234375 9.34375 -27.078125 C 11.144531 -27.929688 13.304688 -28.359375 15.828125 -28.359375 C 17.648438 -28.359375 19.414062 -28.085938 21.125 -27.546875 C 22.84375 -27.015625 24.378906 -26.160156 25.734375 -24.984375 C 27.097656 -23.804688 28.175781 -22.273438 28.96875 -20.390625 C 29.769531 -18.515625 30.171875 -16.238281 30.171875 -13.5625 L 30.171875 -12.140625 L 10.1875 -12.140625 C 10.414062 -10.640625 10.890625 -9.453125 11.609375 -8.578125 C 12.191406 -7.859375 12.898438 -7.328125 13.734375 -6.984375 C 14.566406 -6.640625 15.488281 -6.46875 16.5 -6.46875 C 17.75 -6.46875 18.804688 -6.773438 19.671875 -7.390625 C 20.535156 -8.015625 21.128906 -8.75 21.453125 -9.59375 L 29.734375 -9.59375 C 29.210938 -7.769531 28.378906 -6.082031 27.234375 -4.53125 C 26.085938 -2.976562 24.59375 -1.734375 22.75 -0.796875 C 20.90625 0.128906 18.675781 0.59375 16.0625 0.59375 Z M 10.4375 -17.984375 L 21.84375 -17.984375 C 21.78125 -18.304688 21.65625 -18.695312 21.46875 -19.15625 C 21.289062 -19.613281 20.976562 -20.050781 20.53125 -20.46875 C 19.9375 -21.0625 19.265625 -21.476562 18.515625 -21.71875 C 17.765625 -21.96875 16.960938 -22.09375 16.109375 -22.09375 C 15.296875 -22.09375 14.503906 -21.96875 13.734375 -21.71875 C 12.972656 -21.476562 12.296875 -21.0625 11.703125 -20.46875 C 11.242188 -20.019531 10.929688 -19.570312 10.765625 -19.125 C 10.609375 -18.6875 10.5 -18.304688 10.4375 -17.984375 Z M 10.4375 -17.984375 "/></g></g></g><g fill="#000000" fill-opacity="1"><g transform="translate(109.739573, 53.737996)"><g><path d="M 15.1875 0.59375 C 13.71875 0.59375 12.226562 0.421875 10.71875 0.078125 C 9.21875 -0.265625 7.796875 -0.828125 6.453125 -1.609375 C 5.117188 -2.398438 4.003906 -3.445312 3.109375 -4.75 C 2.210938 -6.050781 1.648438 -7.664062 1.421875 -9.59375 L 9.40625 -9.59375 C 9.863281 -8.195312 10.628906 -7.1875 11.703125 -6.5625 C 12.785156 -5.945312 13.914062 -5.640625 15.09375 -5.640625 C 16.195312 -5.640625 17.125 -5.859375 17.875 -6.296875 C 18.625 -6.734375 19 -7.34375 19 -8.125 C 19 -9.070312 18.4375 -9.734375 17.3125 -10.109375 C 16.1875 -10.484375 14.84375 -10.835938 13.28125 -11.171875 C 12.101562 -11.398438 10.882812 -11.675781 9.625 -12 C 8.363281 -12.320312 7.191406 -12.785156 6.109375 -13.390625 C 5.035156 -13.992188 4.171875 -14.816406 3.515625 -15.859375 C 2.867188 -16.910156 2.546875 -18.253906 2.546875 -19.890625 C 2.546875 -21.941406 3.078125 -23.585938 4.140625 -24.828125 C 5.203125 -26.078125 6.582031 -26.976562 8.28125 -27.53125 C 9.976562 -28.082031 11.789062 -28.359375 13.71875 -28.359375 C 17.113281 -28.359375 19.953125 -27.515625 22.234375 -25.828125 C 24.523438 -24.148438 25.929688 -21.726562 26.453125 -18.5625 L 18.65625 -18.5625 C 18.269531 -19.90625 17.601562 -20.84375 16.65625 -21.375 C 15.707031 -21.914062 14.710938 -22.1875 13.671875 -22.1875 C 12.648438 -22.1875 11.835938 -22 11.234375 -21.625 C 10.628906 -21.25 10.328125 -20.734375 10.328125 -20.078125 C 10.328125 -19.171875 10.898438 -18.523438 12.046875 -18.140625 C 13.191406 -17.765625 14.566406 -17.429688 16.171875 -17.140625 C 17.378906 -16.910156 18.617188 -16.640625 19.890625 -16.328125 C 21.160156 -16.023438 22.34375 -15.578125 23.4375 -14.984375 C 24.53125 -14.398438 25.410156 -13.609375 26.078125 -12.609375 C 26.753906 -11.617188 27.09375 -10.304688 27.09375 -8.671875 C 27.09375 -5.890625 26.03125 -3.648438 23.90625 -1.953125 C 21.78125 -0.253906 18.875 0.59375 15.1875 0.59375 Z M 15.1875 0.59375 "/></g></g></g><g fill="#000000" fill-opacity="1"><g transform="translate(138.544881, 53.737996)"><g><path d="M 16.0625 0.59375 C 13.125 0.59375 10.566406 -0.0234375 8.390625 -1.265625 C 6.222656 -2.515625 4.539062 -4.207031 3.34375 -6.34375 C 2.15625 -8.476562 1.5625 -10.921875 1.5625 -13.671875 C 1.5625 -15.429688 1.832031 -17.175781 2.375 -18.90625 C 2.914062 -20.632812 3.765625 -22.21875 4.921875 -23.65625 C 6.078125 -25.09375 7.550781 -26.234375 9.34375 -27.078125 C 11.144531 -27.929688 13.304688 -28.359375 15.828125 -28.359375 C 17.648438 -28.359375 19.414062 -28.085938 21.125 -27.546875 C 22.84375 -27.015625 24.378906 -26.160156 25.734375 -24.984375 C 27.097656 -23.804688 28.175781 -22.273438 28.96875 -20.390625 C 29.769531 -18.515625 30.171875 -16.238281 30.171875 -13.5625 L 30.171875 -12.140625 L 10.1875 -12.140625 C 10.414062 -10.640625 10.890625 -9.453125 11.609375 -8.578125 C 12.191406 -7.859375 12.898438 -7.328125 13.734375 -6.984375 C 14.566406 -6.640625 15.488281 -6.46875 16.5 -6.46875 C 17.75 -6.46875 18.804688 -6.773438 19.671875 -7.390625 C 20.535156 -8.015625 21.128906 -8.75 21.453125 -9.59375 L 29.734375 -9.59375 C 29.210938 -7.769531 28.378906 -6.082031 27.234375 -4.53125 C 26.085938 -2.976562 24.59375 -1.734375 22.75 -0.796875 C 20.90625 0.128906 18.675781 0.59375 16.0625 0.59375 Z M 10.4375 -17.984375 L 21.84375 -17.984375 C 21.78125 -18.304688 21.65625 -18.695312 21.46875 -19.15625 C 21.289062 -19.613281 20.976562 -20.050781 20.53125 -20.46875 C 19.9375 -21.0625 19.265625 -21.476562 18.515625 -21.71875 C 17.765625 -21.96875 16.960938 -22.09375 16.109375 -22.09375 C 15.296875 -22.09375 14.503906 -21.96875 13.734375 -21.71875 C 12.972656 -21.476562 12.296875 -21.0625 11.703125 -20.46875 C 11.242188 -20.019531 10.929688 -19.570312 10.765625 -19.125 C 10.609375 -18.6875 10.5 -18.304688 10.4375 -17.984375 Z M 10.4375 -17.984375 "/></g></g></g><g fill="#000000" fill-opacity="1"><g transform="translate(170.289501, 53.737996)"><g><path d="M 16.0625 0.59375 C 13.125 0.59375 10.566406 -0.0234375 8.390625 -1.265625 C 6.222656 -2.515625 4.539062 -4.207031 3.34375 -6.34375 C 2.15625 -8.476562 1.5625 -10.921875 1.5625 -13.671875 C 1.5625 -15.429688 1.832031 -17.175781 2.375 -18.90625 C 2.914062 -20.632812 3.765625 -22.21875 4.921875 -23.65625 C 6.078125 -25.09375 7.550781 -26.234375 9.34375 -27.078125 C 11.144531 -27.929688 13.304688 -28.359375 15.828125 -28.359375 C 17.648438 -28.359375 19.414062 -28.085938 21.125 -27.546875 C 22.84375 -27.015625 24.378906 -26.160156 25.734375 -24.984375 C 27.097656 -23.804688 28.175781 -22.273438 28.96875 -20.390625 C 29.769531 -18.515625 30.171875 -16.238281 30.171875 -13.5625 L 30.171875 -12.140625 L 10.1875 -12.140625 C 10.414062 -10.640625 10.890625 -9.453125 11.609375 -8.578125 C 12.191406 -7.859375 12.898438 -7.328125 13.734375 -6.984375 C 14.566406 -6.640625 15.488281 -6.46875 16.5 -6.46875 C 17.75 -6.46875 18.804688 -6.773438 19.671875 -7.390625 C 20.535156 -8.015625 21.128906 -8.75 21.453125 -9.59375 L 29.734375 -9.59375 C 29.210938 -7.769531 28.378906 -6.082031 27.234375 -4.53125 C 26.085938 -2.976562 24.59375 -1.734375 22.75 -0.796875 C 20.90625 0.128906 18.675781 0.59375 16.0625 0.59375 Z M 10.4375 -17.984375 L 21.84375 -17.984375 C 21.78125 -18.304688 21.65625 -18.695312 21.46875 -19.15625 C 21.289062 -19.613281 20.976562 -20.050781 20.53125 -20.46875 C 19.9375 -21.0625 19.265625 -21.476562 18.515625 -21.71875 C 17.765625 -21.96875 16.960938 -22.09375 16.109375 -22.09375 C 15.296875 -22.09375 14.503906 -21.96875 13.734375 -21.71875 C 12.972656 -21.476562 12.296875 -21.0625 11.703125 -20.46875 C 11.242188 -20.019531 10.929688 -19.570312 10.765625 -19.125 C 10.609375 -18.6875 10.5 -18.304688 10.4375 -17.984375 Z M 10.4375 -17.984375 "/></g></g></g><g fill="#000000" fill-opacity="1"><g transform="translate(202.03412, 53.737996)"><g><path d="M 10.921875 0 L 2.6875 0 L 2.6875 -37.375 L 10.921875 -37.375 L 10.921875 -18.03125 L 19.734375 -27.78125 L 29.875 -27.78125 L 18.46875 -15.828125 L 30.515625 0 L 20.71875 0 L 10.921875 -13.328125 Z M 10.921875 0 "/></g></g></g></svg>